<svg id="visual" viewBox="0 0 900 600" width="900" height="600" xmlns="http://www.w3.org/2000/svg" xmlns:xlink="http://www.w3.org/1999/xlink" version="1.1"><rect x="0" y="0" width="900" height="600" fill="#222222"></rect><path d="M0 197L129 141L257 212L386 259L514 255L643 272L771 188L900 229L900 601L771 601L643 601L514 601L386 601L257 601L129 601L0 601Z" fill="#9d1800"></path><path d="M0 318L129 202L257 271L386 268L514 309L643 215L771 320L900 208L900 601L771 601L643 601L514 601L386 601L257 601L129 601L0 601Z" fill="#a62301"></path><path d="M0 238L129 229L257 343L386 296L514 278L643 321L771 277L900 346L900 601L771 601L643 601L514 601L386 601L257 601L129 601L0 601Z" fill="#af2c02"></path><path d="M0 373L129 363L257 373L386 308L514 265L643 293L771 264L900 300L900 601L771 601L643 601L514 601L386 601L257 601L129 601L0 601Z" fill="#b83502"></path><path d="M0 344L129 351L257 405L386 397L514 383L643 316L771 301L900 346L900 601L771 601L643 601L514 601L386 601L257 601L129 601L0 601Z" fill="#c13e03"></path><path d="M0 413L129 363L257 372L386 347L514 365L643 339L771 413L900 404L900 601L771 601L643 601L514 601L386 601L257 601L129 601L0 601Z" fill="#ca4704"></path><path d="M0 432L129 374L257 395L386 377L514 401L643 381L771 445L900 383L900 601L771 601L643 601L514 601L386 601L257 601L129 601L0 601Z" fill="#d35005"></path><path d="M0 454L129 450L257 432L386 456L514 456L643 474L771 459L900 467L900 601L771 601L643 601L514 601L386 601L257 601L129 601L0 601Z" fill="#db5906"></path><path d="M0 497L129 464L257 487L386 515L514 489L643 517L771 485L900 491L900 601L771 601L643 601L514 601L386 601L257 601L129 601L0 601Z" fill="#e46107"></path><path d="M0 512L129 548L257 533L386 541L514 504L643 496L771 500L900 537L900 601L771 601L643 601L514 601L386 601L257 601L129 601L0 601Z" fill="#ed6a08"></path><path d="M0 542L129 556L257 564L386 534L514 555L643 544L771 548L900 553L900 601L771 601L643 601L514 601L386 601L257 601L129 601L0 601Z" fill="#f5730a"></path></svg>