<svg id="visual" viewBox="0 0 900 600" width="900" height="600" xmlns="http://www.w3.org/2000/svg" xmlns:xlink="http://www.w3.org/1999/xlink" version="1.1"><rect x="0" y="0" width="900" height="600" fill="#001220"></rect><path d="M0 317L21.5 301.5C43 286 86 255 128.8 246.5C171.7 238 214.3 252 257.2 262.2C300 272.3 343 278.7 385.8 271.8C428.7 265 471.3 245 514.2 240.5C557 236 600 247 642.8 260.7C685.7 274.3 728.3 290.7 771.2 297.3C814 304 857 301 878.5 299.5L900 298L900 601L878.5 601C857 601 814 601 771.2 601C728.3 601 685.7 601 642.8 601C600 601 557 601 514.2 601C471.3 601 428.7 601 385.8 601C343 601 300 601 257.2 601C214.3 601 171.7 601 128.8 601C86 601 43 601 21.5 601L0 601Z" fill="#fa7268"></path><path d="M0 296L21.5 289.7C43 283.3 86 270.7 128.8 267.8C171.7 265 214.3 272 257.2 270.3C300 268.7 343 258.3 385.8 268.5C428.7 278.7 471.3 309.3 514.2 310.2C557 311 600 282 642.8 275.8C685.7 269.7 728.3 286.3 771.2 289.7C814 293 857 283 878.5 278L900 273L900 601L878.5 601C857 601 814 601 771.2 601C728.3 601 685.7 601 642.8 601C600 601 557 601 514.2 601C471.3 601 428.7 601 385.8 601C343 601 300 601 257.2 601C214.3 601 171.7 601 128.8 601C86 601 43 601 21.5 601L0 601Z" fill="#f46767"></path><path d="M0 353L21.5 355.7C43 358.3 86 363.7 128.8 365.8C171.7 368 214.3 367 257.2 360.3C300 353.7 343 341.3 385.8 337C428.7 332.7 471.3 336.3 514.2 342.5C557 348.7 600 357.3 642.8 352.3C685.7 347.3 728.3 328.7 771.2 320.8C814 313 857 316 878.5 317.5L900 319L900 601L878.5 601C857 601 814 601 771.2 601C728.3 601 685.7 601 642.8 601C600 601 557 601 514.2 601C471.3 601 428.7 601 385.8 601C343 601 300 601 257.2 601C214.3 601 171.7 601 128.8 601C86 601 43 601 21.5 601L0 601Z" fill="#ee5c67"></path><path d="M0 376L21.5 382.5C43 389 86 402 128.8 406C171.7 410 214.3 405 257.2 399.2C300 393.3 343 386.7 385.8 378.3C428.7 370 471.3 360 514.2 366.2C557 372.3 600 394.7 642.8 391.8C685.7 389 728.3 361 771.2 348.3C814 335.7 857 338.3 878.5 339.7L900 341L900 601L878.5 601C857 601 814 601 771.2 601C728.3 601 685.7 601 642.8 601C600 601 557 601 514.2 601C471.3 601 428.7 601 385.8 601C343 601 300 601 257.2 601C214.3 601 171.7 601 128.8 601C86 601 43 601 21.5 601L0 601Z" fill="#e75167"></path><path d="M0 427L21.5 422.7C43 418.3 86 409.7 128.8 404C171.7 398.3 214.3 395.7 257.2 396.3C300 397 343 401 385.8 406C428.7 411 471.3 417 514.2 414.3C557 411.7 600 400.3 642.8 396.5C685.7 392.7 728.3 396.3 771.2 404.8C814 413.3 857 426.7 878.5 433.3L900 440L900 601L878.5 601C857 601 814 601 771.2 601C728.3 601 685.7 601 642.8 601C600 601 557 601 514.2 601C471.3 601 428.7 601 385.8 601C343 601 300 601 257.2 601C214.3 601 171.7 601 128.8 601C86 601 43 601 21.5 601L0 601Z" fill="#df4667"></path><path d="M0 471L21.5 474.7C43 478.3 86 485.7 128.8 489.5C171.7 493.3 214.3 493.7 257.2 490.2C300 486.7 343 479.3 385.8 474.5C428.7 469.7 471.3 467.3 514.2 461.3C557 455.3 600 445.7 642.8 445C685.7 444.3 728.3 452.7 771.2 459.2C814 465.7 857 470.3 878.5 472.7L900 475L900 601L878.5 601C857 601 814 601 771.2 601C728.3 601 685.7 601 642.8 601C600 601 557 601 514.2 601C471.3 601 428.7 601 385.8 601C343 601 300 601 257.2 601C214.3 601 171.7 601 128.8 601C86 601 43 601 21.5 601L0 601Z" fill="#d73b67"></path><path d="M0 475L21.5 483.3C43 491.7 86 508.3 128.8 510.3C171.7 512.3 214.3 499.7 257.2 495.8C300 492 343 497 385.8 495C428.7 493 471.3 484 514.2 485C557 486 600 497 642.8 506.2C685.7 515.3 728.3 522.7 771.2 525.7C814 528.7 857 527.3 878.5 526.7L900 526L900 601L878.5 601C857 601 814 601 771.2 601C728.3 601 685.7 601 642.8 601C600 601 557 601 514.2 601C471.3 601 428.7 601 385.8 601C343 601 300 601 257.2 601C214.3 601 171.7 601 128.8 601C86 601 43 601 21.5 601L0 601Z" fill="#cf3068"></path><path d="M0 537L21.5 541.5C43 546 86 555 128.8 553.5C171.7 552 214.3 540 257.2 534C300 528 343 528 385.8 526.5C428.7 525 471.3 522 514.2 527.2C557 532.3 600 545.7 642.8 550.5C685.7 555.3 728.3 551.7 771.2 553C814 554.3 857 560.7 878.5 563.8L900 567L900 601L878.5 601C857 601 814 601 771.2 601C728.3 601 685.7 601 642.8 601C600 601 557 601 514.2 601C471.3 601 428.7 601 385.8 601C343 601 300 601 257.2 601C214.3 601 171.7 601 128.8 601C86 601 43 601 21.5 601L0 601Z" fill="#c62368"></path></svg>