<svg id="visual" viewBox="0 0 900 600" width="900" height="600" xmlns="http://www.w3.org/2000/svg" xmlns:xlink="http://www.w3.org/1999/xlink" version="1.1"><g stroke-width="1" stroke-linejoin="bevel"><path d="M375 331L336 402L376 405Z" fill="#297ea6" stroke="#297ea6"></path><path d="M375 331L282 330L336 402Z" fill="#19435d" stroke="#19435d"></path><path d="M195 402L303 472L336 402Z" fill="#277297" stroke="#277297"></path><path d="M336 402L303 472L376 405Z" fill="#277297" stroke="#277297"></path><path d="M370 503L477 401L376 405Z" fill="#15384f" stroke="#15384f"></path><path d="M376 405L477 401L375 331Z" fill="#205a7a" stroke="#205a7a"></path><path d="M303 472L370 503L376 405Z" fill="#112e42" stroke="#112e42"></path><path d="M282 330L195 402L336 402Z" fill="#246688" stroke="#246688"></path><path d="M195 402L223 475L303 472Z" fill="#15384f" stroke="#15384f"></path><path d="M314 600L370 600L370 503Z" fill="#19435d" stroke="#19435d"></path><path d="M282 330L186 339L195 402Z" fill="#277297" stroke="#277297"></path><path d="M478 192L409 199L375 331Z" fill="#246688" stroke="#246688"></path><path d="M375 331L274 177L282 330Z" fill="#081a28" stroke="#081a28"></path><path d="M282 330L216 174L186 339Z" fill="#15384f" stroke="#15384f"></path><path d="M477 401L532 332L375 331Z" fill="#081a28" stroke="#081a28"></path><path d="M370 503L481 515L477 401Z" fill="#205a7a" stroke="#205a7a"></path><path d="M477 401L618 403L532 332Z" fill="#297ea6" stroke="#297ea6"></path><path d="M409 199L274 177L375 331Z" fill="#205a7a" stroke="#205a7a"></path><path d="M532 332L478 192L375 331Z" fill="#112e42" stroke="#112e42"></path><path d="M409 199L313 87L274 177Z" fill="#297ea6" stroke="#297ea6"></path><path d="M314 600L370 503L303 472Z" fill="#19435d" stroke="#19435d"></path><path d="M370 503L370 600L481 515Z" fill="#205a7a" stroke="#205a7a"></path><path d="M223 475L314 600L303 472Z" fill="#19435d" stroke="#19435d"></path><path d="M274 177L216 174L282 330Z" fill="#00101c" stroke="#00101c"></path><path d="M216 174L136 263L186 339Z" fill="#15384f" stroke="#15384f"></path><path d="M186 339L74 391L195 402Z" fill="#246688" stroke="#246688"></path><path d="M99 600L213 600L223 475Z" fill="#112e42" stroke="#112e42"></path><path d="M481 515L618 403L477 401Z" fill="#246688" stroke="#246688"></path><path d="M532 332L609 204L478 192Z" fill="#19435d" stroke="#19435d"></path><path d="M223 475L213 600L314 600Z" fill="#246688" stroke="#246688"></path><path d="M64 478L223 475L195 402Z" fill="#0c2435" stroke="#0c2435"></path><path d="M370 600L521 600L481 515Z" fill="#15384f" stroke="#15384f"></path><path d="M481 515L626 538L618 403Z" fill="#081a28" stroke="#081a28"></path><path d="M274 177L190 93L216 174Z" fill="#15384f" stroke="#15384f"></path><path d="M425 78L313 87L409 199Z" fill="#0c2435" stroke="#0c2435"></path><path d="M136 263L74 391L186 339Z" fill="#277297" stroke="#277297"></path><path d="M618 403L633 286L532 332Z" fill="#1d4e6b" stroke="#1d4e6b"></path><path d="M478 192L425 78L409 199Z" fill="#15384f" stroke="#15384f"></path><path d="M519 90L425 78L478 192Z" fill="#081a28" stroke="#081a28"></path><path d="M633 286L609 204L532 332Z" fill="#1d4e6b" stroke="#1d4e6b"></path><path d="M74 391L64 478L195 402Z" fill="#205a7a" stroke="#205a7a"></path><path d="M577 600L626 538L481 515Z" fill="#15384f" stroke="#15384f"></path><path d="M618 403L678 364L633 286Z" fill="#15384f" stroke="#15384f"></path><path d="M521 600L577 600L481 515Z" fill="#00101c" stroke="#00101c"></path><path d="M675 501L678 364L618 403Z" fill="#112e42" stroke="#112e42"></path><path d="M633 286L668 218L609 204Z" fill="#0c2435" stroke="#0c2435"></path><path d="M562 101L519 90L478 192Z" fill="#205a7a" stroke="#205a7a"></path><path d="M218 0L190 93L313 87Z" fill="#15384f" stroke="#15384f"></path><path d="M313 87L190 93L274 177Z" fill="#297ea6" stroke="#297ea6"></path><path d="M216 174L67 203L136 263Z" fill="#277297" stroke="#277297"></path><path d="M136 263L0 314L74 391Z" fill="#112e42" stroke="#112e42"></path><path d="M678 364L682 294L633 286Z" fill="#297ea6" stroke="#297ea6"></path><path d="M609 204L562 101L478 192Z" fill="#112e42" stroke="#112e42"></path><path d="M122 102L67 203L216 174Z" fill="#277297" stroke="#277297"></path><path d="M74 391L0 417L64 478Z" fill="#15384f" stroke="#15384f"></path><path d="M697 134L562 101L609 204Z" fill="#112e42" stroke="#112e42"></path><path d="M771 481L675 501L721 600Z" fill="#15384f" stroke="#15384f"></path><path d="M626 538L675 501L618 403Z" fill="#19435d" stroke="#19435d"></path><path d="M678 364L813 406L682 294Z" fill="#277297" stroke="#277297"></path><path d="M682 294L668 218L633 286Z" fill="#112e42" stroke="#112e42"></path><path d="M64 478L99 600L223 475Z" fill="#15384f" stroke="#15384f"></path><path d="M190 93L122 102L216 174Z" fill="#1d4e6b" stroke="#1d4e6b"></path><path d="M0 314L0 417L74 391Z" fill="#277297" stroke="#277297"></path><path d="M64 478L0 510L99 600Z" fill="#277297" stroke="#277297"></path><path d="M0 214L0 314L67 203Z" fill="#277297" stroke="#277297"></path><path d="M67 203L0 314L136 263Z" fill="#246688" stroke="#246688"></path><path d="M479 0L397 0L425 78Z" fill="#15384f" stroke="#15384f"></path><path d="M425 78L397 0L313 87Z" fill="#277297" stroke="#277297"></path><path d="M190 93L139 0L122 102Z" fill="#277297" stroke="#277297"></path><path d="M479 0L425 78L519 90Z" fill="#081a28" stroke="#081a28"></path><path d="M397 0L294 0L313 87Z" fill="#15384f" stroke="#15384f"></path><path d="M0 417L0 510L64 478Z" fill="#00101c" stroke="#00101c"></path><path d="M631 0L479 0L519 90Z" fill="#1d4e6b" stroke="#1d4e6b"></path><path d="M631 0L519 90L562 101Z" fill="#112e42" stroke="#112e42"></path><path d="M0 66L0 214L67 203Z" fill="#112e42" stroke="#112e42"></path><path d="M294 0L218 0L313 87Z" fill="#0c2435" stroke="#0c2435"></path><path d="M122 102L0 66L67 203Z" fill="#112e42" stroke="#112e42"></path><path d="M774 189L697 134L668 218Z" fill="#00101c" stroke="#00101c"></path><path d="M668 218L697 134L609 204Z" fill="#1d4e6b" stroke="#1d4e6b"></path><path d="M774 189L668 218L682 294Z" fill="#277297" stroke="#277297"></path><path d="M0 510L0 600L99 600Z" fill="#297ea6" stroke="#297ea6"></path><path d="M721 600L675 501L626 538Z" fill="#1d4e6b" stroke="#1d4e6b"></path><path d="M675 501L771 481L678 364Z" fill="#112e42" stroke="#112e42"></path><path d="M218 0L139 0L190 93Z" fill="#00101c" stroke="#00101c"></path><path d="M577 600L721 600L626 538Z" fill="#15384f" stroke="#15384f"></path><path d="M829 264L774 189L682 294Z" fill="#1d4e6b" stroke="#1d4e6b"></path><path d="M900 392L813 406L900 507Z" fill="#00101c" stroke="#00101c"></path><path d="M771 481L813 406L678 364Z" fill="#112e42" stroke="#112e42"></path><path d="M736 0L631 0L697 134Z" fill="#19435d" stroke="#19435d"></path><path d="M697 134L631 0L562 101Z" fill="#1d4e6b" stroke="#1d4e6b"></path><path d="M139 0L0 66L122 102Z" fill="#112e42" stroke="#112e42"></path><path d="M813 406L829 264L682 294Z" fill="#205a7a" stroke="#205a7a"></path><path d="M900 233L803 130L774 189Z" fill="#0c2435" stroke="#0c2435"></path><path d="M774 189L803 130L697 134Z" fill="#081a28" stroke="#081a28"></path><path d="M139 0L0 0L0 66Z" fill="#19435d" stroke="#19435d"></path><path d="M721 600L821 600L771 481Z" fill="#15384f" stroke="#15384f"></path><path d="M813 406L900 392L829 264Z" fill="#246688" stroke="#246688"></path><path d="M803 130L736 0L697 134Z" fill="#081a28" stroke="#081a28"></path><path d="M900 507L813 406L771 481Z" fill="#246688" stroke="#246688"></path><path d="M829 264L900 233L774 189Z" fill="#00101c" stroke="#00101c"></path><path d="M900 392L900 273L829 264Z" fill="#297ea6" stroke="#297ea6"></path><path d="M803 130L768 0L736 0Z" fill="#19435d" stroke="#19435d"></path><path d="M900 0L768 0L803 130Z" fill="#297ea6" stroke="#297ea6"></path><path d="M900 273L900 233L829 264Z" fill="#205a7a" stroke="#205a7a"></path><path d="M821 600L900 507L771 481Z" fill="#15384f" stroke="#15384f"></path><path d="M900 233L900 139L803 130Z" fill="#081a28" stroke="#081a28"></path><path d="M821 600L900 600L900 507Z" fill="#15384f" stroke="#15384f"></path><path d="M900 139L900 0L803 130Z" fill="#19435d" stroke="#19435d"></path></g></svg>