<svg id="visual" viewBox="0 0 900 600" width="900" height="600" xmlns="http://www.w3.org/2000/svg" xmlns:xlink="http://www.w3.org/1999/xlink" version="1.1"><g stroke-width="1" stroke-linejoin="bevel"><path d="M491.3 277L417.7 233L397.7 373Z" fill="#25769e" stroke="#25769e"></path><path d="M397.7 373L505.3 383L491.3 277Z" fill="#073e64" stroke="#073e64"></path><path d="M397.7 373L411.7 452L505.3 383Z" fill="#0b466c" stroke="#0b466c"></path><path d="M417.7 233L251.1 272L397.7 373Z" fill="#185d85" stroke="#185d85"></path><path d="M397.7 373L251.1 493L411.7 452Z" fill="#0b466c" stroke="#0b466c"></path><path d="M411.7 452L493.3 479L505.3 383Z" fill="#185d85" stroke="#185d85"></path><path d="M251.1 272L236.1 350L397.7 373Z" fill="#297ea6" stroke="#297ea6"></path><path d="M621.9 450L614.9 363L505.3 383Z" fill="#25769e" stroke="#25769e"></path><path d="M505.3 383L614.9 363L491.3 277Z" fill="#03375c" stroke="#03375c"></path><path d="M547.3 115L363.7 110L417.7 233Z" fill="#003054" stroke="#003054"></path><path d="M417.7 233L363.7 110L251.1 272Z" fill="#073e64" stroke="#073e64"></path><path d="M547.3 115L417.7 233L491.3 277Z" fill="#073e64" stroke="#073e64"></path><path d="M631.9 143L547.3 115L491.3 277Z" fill="#03375c" stroke="#03375c"></path><path d="M614.9 363L664.9 265L491.3 277Z" fill="#297ea6" stroke="#297ea6"></path><path d="M493.3 479L621.9 450L505.3 383Z" fill="#297ea6" stroke="#297ea6"></path><path d="M614.9 363L775.4 331L664.9 265Z" fill="#03375c" stroke="#03375c"></path><path d="M363.7 110L262.1 109L251.1 272Z" fill="#206d96" stroke="#206d96"></path><path d="M251.1 272L156.6 332L236.1 350Z" fill="#03375c" stroke="#03375c"></path><path d="M236.1 350L251.1 493L397.7 373Z" fill="#03375c" stroke="#03375c"></path><path d="M411.7 452L353.7 600L493.3 479Z" fill="#14557d" stroke="#14557d"></path><path d="M664.9 265L631.9 143L491.3 277Z" fill="#185d85" stroke="#185d85"></path><path d="M135.6 200L156.6 332L251.1 272Z" fill="#104d75" stroke="#104d75"></path><path d="M236.1 350L122.6 479L251.1 493Z" fill="#297ea6" stroke="#297ea6"></path><path d="M251.1 493L353.7 600L411.7 452Z" fill="#073e64" stroke="#073e64"></path><path d="M493.3 479L503.3 600L621.9 450Z" fill="#003054" stroke="#003054"></path><path d="M353.7 600L503.3 600L493.3 479Z" fill="#14557d" stroke="#14557d"></path><path d="M262.1 109L135.6 200L251.1 272Z" fill="#297ea6" stroke="#297ea6"></path><path d="M651.9 0L493.3 0L547.3 115Z" fill="#297ea6" stroke="#297ea6"></path><path d="M547.3 115L493.3 0L363.7 110Z" fill="#0b466c" stroke="#0b466c"></path><path d="M363.7 110L347.7 0L262.1 109Z" fill="#206d96" stroke="#206d96"></path><path d="M493.3 0L347.7 0L363.7 110Z" fill="#1c658d" stroke="#1c658d"></path><path d="M262.1 109L105.6 102L135.6 200Z" fill="#206d96" stroke="#206d96"></path><path d="M775.4 331L732.4 216L664.9 265Z" fill="#297ea6" stroke="#297ea6"></path><path d="M664.9 265L732.4 216L631.9 143Z" fill="#0b466c" stroke="#0b466c"></path><path d="M631.9 143L651.9 0L547.3 115Z" fill="#1c658d" stroke="#1c658d"></path><path d="M347.7 0L259.1 0L262.1 109Z" fill="#1c658d" stroke="#1c658d"></path><path d="M156.6 332L122.6 479L236.1 350Z" fill="#1c658d" stroke="#1c658d"></path><path d="M251.1 493L217.1 600L353.7 600Z" fill="#03375c" stroke="#03375c"></path><path d="M0 344L122.6 479L156.6 332Z" fill="#297ea6" stroke="#297ea6"></path><path d="M621.9 450L775.4 331L614.9 363Z" fill="#206d96" stroke="#206d96"></path><path d="M732.4 514L775.4 331L621.9 450Z" fill="#03375c" stroke="#03375c"></path><path d="M167.6 600L217.1 600L251.1 493Z" fill="#0b466c" stroke="#0b466c"></path><path d="M670.9 600L732.4 514L621.9 450Z" fill="#1c658d" stroke="#1c658d"></path><path d="M259.1 0L105.6 102L262.1 109Z" fill="#03375c" stroke="#03375c"></path><path d="M135.6 200L0 344L156.6 332Z" fill="#14557d" stroke="#14557d"></path><path d="M738.4 0L651.9 0L631.9 143Z" fill="#297ea6" stroke="#297ea6"></path><path d="M806.4 114L631.9 143L732.4 216Z" fill="#0b466c" stroke="#0b466c"></path><path d="M503.3 600L670.9 600L621.9 450Z" fill="#25769e" stroke="#25769e"></path><path d="M122.6 479L167.6 600L251.1 493Z" fill="#003054" stroke="#003054"></path><path d="M0 200L0 344L135.6 200Z" fill="#297ea6" stroke="#297ea6"></path><path d="M122.6 479L0 600L167.6 600Z" fill="#104d75" stroke="#104d75"></path><path d="M900 235L806.4 114L732.4 216Z" fill="#104d75" stroke="#104d75"></path><path d="M105.6 102L0 200L135.6 200Z" fill="#25769e" stroke="#25769e"></path><path d="M806.4 114L738.4 0L631.9 143Z" fill="#104d75" stroke="#104d75"></path><path d="M259.1 0L102.6 0L105.6 102Z" fill="#0b466c" stroke="#0b466c"></path><path d="M105.6 102L0 116L0 200Z" fill="#03375c" stroke="#03375c"></path><path d="M670.9 600L763.4 600L732.4 514Z" fill="#185d85" stroke="#185d85"></path><path d="M900 487L900 341L775.4 331Z" fill="#14557d" stroke="#14557d"></path><path d="M775.4 331L900 235L732.4 216Z" fill="#0b466c" stroke="#0b466c"></path><path d="M0 344L0 485L122.6 479Z" fill="#03375c" stroke="#03375c"></path><path d="M0 0L0 116L105.6 102Z" fill="#0b466c" stroke="#0b466c"></path><path d="M900 487L775.4 331L732.4 514Z" fill="#206d96" stroke="#206d96"></path><path d="M900 341L900 235L775.4 331Z" fill="#03375c" stroke="#03375c"></path><path d="M806.4 114L900 0L738.4 0Z" fill="#185d85" stroke="#185d85"></path><path d="M900 235L900 149L806.4 114Z" fill="#003054" stroke="#003054"></path><path d="M763.4 600L900 487L732.4 514Z" fill="#073e64" stroke="#073e64"></path><path d="M0 485L0 600L122.6 479Z" fill="#104d75" stroke="#104d75"></path><path d="M102.6 0L0 0L105.6 102Z" fill="#1c658d" stroke="#1c658d"></path><path d="M763.4 600L900 600L900 487Z" fill="#206d96" stroke="#206d96"></path><path d="M900 149L900 0L806.4 114Z" fill="#25769e" stroke="#25769e"></path></g></svg>