<svg id="visual" viewBox="0 0 900 600" width="900" height="600" xmlns="http://www.w3.org/2000/svg" xmlns:xlink="http://www.w3.org/1999/xlink" version="1.1"><path d="M0 73L15 74C30 75 60 77 90 77C120 77 150 75 180 68C210 61 240 49 270 44C300 39 330 41 360 51C390 61 420 79 450 88C480 97 510 97 540 98C570 99 600 101 630 91C660 81 690 59 720 54C750 49 780 61 810 64C840 67 870 61 885 58L900 55L900 0L885 0C870 0 840 0 810 0C780 0 750 0 720 0C690 0 660 0 630 0C600 0 570 0 540 0C510 0 480 0 450 0C420 0 390 0 360 0C330 0 300 0 270 0C240 0 210 0 180 0C150 0 120 0 90 0C60 0 30 0 15 0L0 0Z" fill="#6198ff"></path><path d="M0 289L15 283C30 277 60 265 90 261C120 257 150 261 180 264C210 267 240 269 270 257C300 245 330 219 360 215C390 211 420 229 450 237C480 245 510 243 540 244C570 245 600 249 630 233C660 217 690 181 720 188C750 195 780 245 810 266C840 287 870 279 885 275L900 271L900 53L885 56C870 59 840 65 810 62C780 59 750 47 720 52C690 57 660 79 630 89C600 99 570 97 540 96C510 95 480 95 450 86C420 77 390 59 360 49C330 39 300 37 270 42C240 47 210 59 180 66C150 73 120 75 90 75C60 75 30 73 15 72L0 71Z" fill="#3c80ff"></path><path d="M0 409L15 402C30 395 60 381 90 370C120 359 150 351 180 353C210 355 240 367 270 364C300 361 330 343 360 329C390 315 420 305 450 299C480 293 510 291 540 299C570 307 600 325 630 321C660 317 690 291 720 293C750 295 780 325 810 336C840 347 870 339 885 335L900 331L900 269L885 273C870 277 840 285 810 264C780 243 750 193 720 186C690 179 660 215 630 231C600 247 570 243 540 242C510 241 480 243 450 235C420 227 390 209 360 213C330 217 300 243 270 255C240 267 210 265 180 262C150 259 120 255 90 259C60 263 30 275 15 281L0 287Z" fill="#0066ff"></path><path d="M0 511L15 517C30 523 60 535 90 538C120 541 150 535 180 528C210 521 240 513 270 515C300 517 330 529 360 527C390 525 420 509 450 506C480 503 510 513 540 511C570 509 600 495 630 494C660 493 690 505 720 501C750 497 780 477 810 466C840 455 870 453 885 452L900 451L900 329L885 333C870 337 840 345 810 334C780 323 750 293 720 291C690 289 660 315 630 319C600 323 570 305 540 297C510 289 480 291 450 297C420 303 390 313 360 327C330 341 300 359 270 362C240 365 210 353 180 351C150 349 120 357 90 368C60 379 30 393 15 400L0 407Z" fill="#0059dd"></path><path d="M0 601L15 601C30 601 60 601 90 601C120 601 150 601 180 601C210 601 240 601 270 601C300 601 330 601 360 601C390 601 420 601 450 601C480 601 510 601 540 601C570 601 600 601 630 601C660 601 690 601 720 601C750 601 780 601 810 601C840 601 870 601 885 601L900 601L900 449L885 450C870 451 840 453 810 464C780 475 750 495 720 499C690 503 660 491 630 492C600 493 570 507 540 509C510 511 480 501 450 504C420 507 390 523 360 525C330 527 300 515 270 513C240 511 210 519 180 526C150 533 120 539 90 536C60 533 30 521 15 515L0 509Z" fill="#004cbb"></path></svg>