<svg id="visual" viewBox="0 0 900 600" width="100%" height="700" xmlns="http://www.w3.org/2000/svg" xmlns:xlink="http://www.w3.org/1999/xlink" version="1.1"><rect x="0" y="0" width="900" height="600" fill="#002233"></rect><path d="M0 461L21.5 451.2C43 441.3 86 421.7 128.8 407.8C171.7 394 214.3 386 257.2 394.8C300 403.7 343 429.3 385.8 429C428.7 428.7 471.3 402.3 514.2 410.7C557 419 600 462 642.8 485.2C685.7 508.3 728.3 511.7 771.2 509.7C814 507.7 857 500.3 878.5 496.7L900 493L900 601L878.5 601C857 601 814 601 771.2 601C728.3 601 685.7 601 642.8 601C600 601 557 601 514.2 601C471.3 601 428.7 601 385.8 601C343 601 300 601 257.2 601C214.3 601 171.7 601 128.8 601C86 601 43 601 21.5 601L0 601Z" fill="#0066FF" stroke-linecap="round" stroke-linejoin="miter"></path></svg>